<svg xmlns="http://www.w3.org/2000/svg" width="512" height="512" viewBox="0 0 512 512" fill="none">
  <rect width="512" height="512" rx="120" fill="#0a1a0d"/>
  <circle cx="256" cy="256" r="180" fill="url(#bgGlow)" opacity="0.28"/>
  <path d="M289.047 467.044c-7.083 9.007-21.553 3.996-21.553-7.443V349.766c0-13.283-10.769-24.052-24.052-24.052H122.38c-9.83 0-15.561-11.11-9.83-19.099l79.786-111.652c11.411-15.973 0-38.175-19.648-38.175H25.854c-9.83 0-15.561-11.11-9.83-19.099L119.435-7.447C121.712-10.617 125.363-12.5 129.251-12.5h308.188c9.83 0 15.561 11.11 9.83 19.099l-79.786 111.652c-11.411 15.973 0 38.175 19.648 38.175h121.273c10.072 0 15.736 11.623 9.501 19.542L289.048 467.044Z" fill="url(#bolt)" transform="translate(20 28) scale(0.92)"/>
  <circle cx="356" cy="158" r="42" fill="#47bfff"/>
  <circle cx="173" cy="364" r="34" fill="#4ade80" opacity="0.85"/>
  <defs>
    <linearGradient id="bolt" x1="25.854" y1="-12.5" x2="420" y2="467.044" gradientUnits="userSpaceOnUse">
      <stop stop-color="#c4b5fd"/>
      <stop offset="0.32" stop-color="#863bff"/>
      <stop offset="0.72" stop-color="#7e14ff"/>
      <stop offset="1" stop-color="#47bfff"/>
    </linearGradient>
    <radialGradient id="bgGlow" cx="0" cy="0" r="1" gradientUnits="userSpaceOnUse" gradientTransform="translate(256 256) rotate(90) scale(180)">
      <stop stop-color="#4ade80"/>
      <stop offset="1" stop-color="#4ade80" stop-opacity="0"/>
    </radialGradient>
  </defs>
</svg>
